:version 1.10
:name ASF
:units
  mass 1
  length 1
  angle deg
:documentation
  ASF file generated by Kaydara
:root
  axis xyz
  order  tx ty tz rx ry rz
  position 0 0 0
  orientation 0 0 0
:bonedata
  begin
    id 1
    name RightUpLegDummy
    direction -1 2.30186e-007 8.31532e-007
    length 4.46685
    axis 0 0 0 xyz
  end
  begin
    id 2
    name RightUpLeg
    direction -2.30187e-007 -1 1.24343e-010
    length 16.4045
    axis -3.49089 -0.000906625 0.000286804 xyz
    dof rx ry rz
  end
  begin
    id 3
    name RightLeg
    direction -2.30181e-007 -1 -4.17157e-009
    length 17.5097
    axis 3.68512 0.0193738 -0.131023 xyz
    dof rx ry rz
  end
  begin
    id 4
    name RightFoot
    direction 8.31421e-007 -4.51202e-011 1
    length 6.49508
    axis 4.81691e-005 -0.120479 -0.188788 xyz
    dof rx ry rz
  end
  begin
    id 5
    name RightToes
    direction 0.00124746 -0.014064 0.9999
    length 3.85082
    axis 0.000481921 0.542163 -0.142578 xyz
    dof rx ry rz
  end
  begin
    id 6
    name SpineDummy
    direction 0.0717043 0.9409 -0.331007
    length 10.0032
    axis 0 0 0 xyz
  end
  begin
    id 7
    name Spine
    direction 2.30186e-007 1 4.58806e-011
    length 9.84055
    axis -0.001389 0.000121418 2.40972e-006 xyz
    dof rx ry rz
  end
  begin
    id 8
    name Spine1
    direction 0 0 0
    length 0
    axis -0.001389 0.000121451 1.30017e-006 xyz
    dof rx ry rz
  end
  begin
    id 9
    name HEadDummy
    direction -0.00347485 0.950688 -0.310128
    length 8.00997
    axis -0.001389 0.000121451 1.30017e-006 xyz
  end
  begin
    id 10
    name HEad
    direction -0.0222688 0.980941 0.193023
    length 5.12695
    axis -0.001389 0.000121451 1.30017e-006 xyz
    dof rx ry rz
  end
  begin
    id 11
    name LeftShoulder1Dummy
    direction 0.988871 0.146793 -0.0242004
    length 3.5792
    axis -0.001389 0.000121451 1.30017e-006 xyz
  end
  begin
    id 12
    name LeftShoulder1
    direction 0.993832 0.108932 0.020779
    length 4.16823
    axis -0.001389 0.000121451 1.30017e-006 xyz
    dof rx ry rz
  end
  begin
    id 13
    name LeftArm
    direction 1 3.44807e-006 -8.31404e-007
    length 9.91437
    axis -23.1894 0.134784 0.967509 xyz
    dof rx ry rz
  end
  begin
    id 14
    name LeftForeArm
    direction 1 3.44842e-006 -8.31581e-007
    length 9.08575
    axis -9.91835 -0.06569 -0.177793 xyz
    dof rx ry rz
  end
  begin
    id 15
    name LeftHand
    direction 0.992938 -0.0411636 0.11126
    length 5.32135
    axis -0.00960232 -0.00340091 0.185173 xyz
    dof rx ry rz
  end
  begin
    id 16
    name RightShoulderDummy
    direction -0.988871 0.146793 -0.0241962
    length 3.5792
    axis -0.001389 0.000121451 1.30017e-006 xyz
  end
  begin
    id 17
    name RightShoulder
    direction -0.993832 0.108933 0.0207785
    length 4.16823
    axis 0.215806 0.000203643 -0.0068026 xyz
    dof rx ry rz
  end
  begin
    id 18
    name RightArm
    direction -1 3.90912e-006 8.31284e-007
    length 9.91437
    axis -23.2009 -0.134239 -0.964101 xyz
    dof rx ry rz
  end
  begin
    id 19
    name RightForeArm
    direction -1 3.90882e-006 8.31502e-007
    length 9.08575
    axis -9.92322 0.0658061 0.178867 xyz
    dof rx ry rz
  end
  begin
    id 20
    name RightHand
    direction -0.992843 -0.0414603 0.112003
    length 5.28593
    axis -0.00960638 0.00330671 -0.185228 xyz
    dof rx ry rz
  end
  begin
    id 21
    name LeftUpLegDummy
    direction 1 -2.30186e-007 -8.31532e-007
    length 4.46685
    axis 0 0 0 xyz
  end
  begin
    id 22
    name LeftUpLeg
    direction -2.30187e-007 -1 6.00931e-010
    length 16.4045
    axis -3.48766 0.00143442 -0.000524262 xyz
    dof rx ry rz
  end
  begin
    id 23
    name LeftLeg
    direction -2.30187e-007 -1 1.6669e-009
    length 17.5097
    axis 3.68178 -0.00654042 -0.000285133 xyz
    dof rx ry rz
  end
  begin
    id 24
    name LeftFoot
    direction 8.31532e-007 -4.54478e-011 1
    length 6.49508
    axis 1.87233e-006 4.66016e-005 -8.6538e-006 xyz
    dof rx ry rz
  end
  begin
    id 25
    name LeftToes
    direction 0.00818058 -0.00485161 0.999955
    length 3.85048
    axis 1.06247e-005 4.65869e-005 -8.65513e-006 xyz
    dof rx ry rz
  end
:hierarchy
  begin
    root RightUpLegDummy SpineDummy LeftUpLegDummy
    RightUpLegDummy RightUpLeg
    RightUpLeg RightLeg
    RightLeg RightFoot
    RightFoot RightToes
    SpineDummy Spine
    Spine Spine1
    Spine1 HEadDummy LeftShoulder1Dummy RightShoulderDummy
    HEadDummy HEad
    LeftShoulder1Dummy LeftShoulder1
    LeftShoulder1 LeftArm
    LeftArm LeftForeArm
    LeftForeArm LeftHand
    RightShoulderDummy RightShoulder
    RightShoulder RightArm
    RightArm RightForeArm
    RightForeArm RightHand
    LeftUpLegDummy LeftUpLeg
    LeftUpLeg LeftLeg
    LeftLeg LeftFoot
    LeftFoot LeftToes
  end

:SAMPLES-PER-SECOND 30
:FULLY-SPECIFIED
:DEGREES
18
root  46.7736 30.9973 3.93417 -168.316 -13.6601 173.258
RightUpLeg  -35.856 4.72182 -15.0887
RightLeg  51.6335 -2.34794 -2.65141
RightFoot  -12.2742 0.080451 1.12582
RightToes  -40.9222 -0.225892 -0.320272
Spine  12.0467 4.24346 4.34201
Spine1  23.3805 11.3941 1.81461
HEad  27.1057 16.906 -9.21391
LeftShoulder1  0 -2.42657e-020 -4.95415e-022
LeftArm  -19.9095 -1.69562 -91.2453
LeftForeArm  48.5973 -32.3908 -6.39397
LeftHand  0.614739 -10.2661 -7.21013
RightShoulder  0 2.42657e-020 1.07489e-018
RightArm  -55.0371 21.1756 60.1616
RightForeArm  63.1158 12.8857 2.25815
RightHand  -1.45435 21.93 -7.12815
LeftUpLeg  -37.2825 1.72523 1.57803
LeftLeg  49.7975 -12.5503 -12.738
LeftFoot  -3.47903 0.0323536 1.06529
LeftToes  -33.9151 1.28829e-006 1.15665e-007
19
root  46.225 30.5192 4.27129 -167.477 -13.5332 172.192
RightUpLeg  -38.2546 5.15048 -17.6146
RightLeg  54.6611 -2.49413 -3.13531
RightFoot  -13.877 0.117495 1.34308
RightToes  -40.8696 -0.225467 -0.319981
Spine  12.4646 4.09588 4.93921
Spine1  24.1544 10.9604 2.97277
HEad  26.1979 14.9741 -10.1088
LeftShoulder1  0 -2.42657e-020 -4.95415e-022
LeftArm  -17.2698 -2.82443 -92.057
LeftForeArm  49.1877 -32.0106 -6.29851
LeftHand  0.622922 -10.3485 -7.24557
RightShoulder  0 2.42657e-020 1.07489e-018
RightArm  -68.411 21.9835 55.1413
RightForeArm  56.6555 6.38342 1.09654
RightHand  -0.923641 19.8428 -4.90851
LeftUpLeg  -38.5364 3.55249 -1.43667
LeftLeg  50.7946 -11.7283 -12.3515
LeftFoot  -7.33607 0.130995 2.04316
LeftToes  -28.0369 1.28829e-006 1.15665e-007
20
root  45.737 30.3622 4.52305 -166.818 -14.7245 172.177
RightUpLeg  -38.6372 5.29168 -18.6277
RightLeg  55.0371 -3.29025 -4.16802
RightFoot  -14.1339 0.158082 1.65274
RightToes  -40.8013 -0.224916 -0.319604
Spine  12.4821 3.30197 5.82275
Spine1  24.3671 8.92062 4.95065
HEad  25.6738 13.5836 -10.9405
LeftShoulder1  0 -2.42657e-020 -4.95415e-022
LeftArm  -16.2708 -3.49842 -93.2648
LeftForeArm  49.231 -31.0678 -6.06778
LeftHand  0.581418 -10.4202 -6.74413
RightShoulder  0 2.42657e-020 1.07489e-018
RightArm  -76.3918 20.1742 52.7316
RightForeArm  49.5837 6.03253 1.04734
RightHand  -0.383093 19.0675 -1.91136
LeftUpLeg  -39.6188 1.50828 -2.07009
LeftLeg  50.9974 -11.143 -11.8423
LeftFoot  -8.47072 0.161425 2.1795
LeftToes  -27.7152 1.28829e-006 1.15665e-007
21
root  45.4245 30.5076 4.66658 -166.31 -15.4364 172.401
RightUpLeg  -38.0576 6.94538 -19.0995
RightLeg  53.6134 -4.88573 -5.83692
RightFoot  -13.9469 0.215419 2.13871
RightToes  -38.2682 -0.204799 -0.305132
Spine  12.2224 2.49543 6.31008
Spine1  24.0104 6.83006 6.39573
HEad  25.6641 12.9746 -11.0828
LeftShoulder1  0 -2.42657e-020 -4.95415e-022
LeftArm  -16.9307 -3.44756 -93.9652
LeftForeArm  48.9253 -30.2637 -5.87535
LeftHand  0.567621 -10.3139 -6.65761
RightShoulder  0 2.42657e-020 1.07489e-018
RightArm  -78.0437 17.2761 53.911
RightForeArm  37.7283 10.6764 1.8965
RightHand  0.0524261 19.7185 0.67188
LeftUpLeg  -40.1538 -0.378938 -2.13907
LeftLeg  50.4023 -10.4679 -10.9276
LeftFoot  -7.91494 0.127015 1.83581
LeftToes  -26.2819 1.28829e-006 1.15665e-007
22
root  45.2219 30.8879 4.66191 -166.168 -14.771 172.676
RightUpLeg  -36.7987 9.90289 -19.3914
RightLeg  50.5446 -5.54347 -5.93065
RightFoot  -13.7052 0.214306 2.16081
RightToes  -35.8537 -0.186237 -0.290522
Spine  11.9401 1.95029 6.22541
Spine1  23.5224 5.33824 6.91953
HEad  26.3956 13.2835 -11.0165
LeftShoulder1  0 -2.42657e-020 -4.95415e-022
LeftArm  -18.0776 -2.64427 -93.7121
LeftForeArm  48.4594 -30.0176 -5.81775
LeftHand  0.56608 -10.1503 -6.74203
RightShoulder  0 2.42657e-020 1.07489e-018
RightArm  -72.2667 13.1676 56.8811
RightForeArm  23.8405 17.7209 3.22626
RightHand  0.747486 19.7234 4.66943
LeftUpLeg  -38.8222 -0.296616 -2.25448
LeftLeg  47.7877 -10.6308 -10.1446
LeftFoot  -6.87298 0.0909566 1.51458
LeftToes  -25.4552 1.28829e-006 1.15665e-007
23
root  45.0875 31.3405 4.57295 -166.238 -14.5294 173.437
RightUpLeg  -34.7781 11.6771 -18.7982
RightLeg  46.2722 -3.64234 -3.37675
RightFoot  -13.134 0.104751 1.28753
RightToes  -36.931 -0.194442 -0.297137
Spine  11.4167 1.27914 6.03742
Spine1  22.6356 3.62219 7.25573
HEad  27.3184 14.3503 -10.8192
LeftShoulder1  0 -2.42657e-020 -4.95415e-022
LeftArm  -19.0706 -0.86034 -92.8173
LeftForeArm  48.1969 -31.1207 -6.08243
LeftHand  0.596813 -10.0837 -7.13173
RightShoulder  0 2.42657e-020 1.07489e-018
RightArm  -64.227 8.02338 59.7715
RightForeArm  14.4647 25.3409 4.78416
RightHand  1.08816 20.2077 6.47293
LeftUpLeg  -36.8342 0.0877573 -1.87053
LeftLeg  44.2662 -11.1795 -9.43598
LeftFoot  -5.74768 0.0627159 1.24926
LeftToes  -24.6694 1.28829e-006 1.15665e-007
